<?xml version="1.0" encoding="utf-8"?>
<svg viewBox="0 0 500 500" xmlns="http://www.w3.org/2000/svg">
  <defs/>
  <g transform="matrix(0.246993, 0, 0, 0.246993, 196.966568, 180.760773)" style="">
    <g>
      <g style="" transform="matrix(1.119768, 0, 0, 1.119768, 53.89016, 42.529362)">
        <g>
          <path fill="#DCDDF4" opacity="1.000000" stroke="none" d="M 490.877 -332.104 C 492.548 -330.206 490.694 -333.167 502.379 -308.04 C 508.232 -283.312 505.594 -284.12 508.42 -284.893 C 557.37 -284.844 605.859 -284.823 654.348 -284.774 C 658.176 -284.77 658.719 -284.884 665.879 -283.889 C 672.086 -283.026 675.667 -282.104 683.545 -278.4 C 689.98 -274.645 689.548 -275.279 696.474 -268.498 C 701.226 -264.438 704.551 -260.487 710.124 -249.713 C 717.14 -234.112 716.843 -231.462 716.846 -213.865 C 716.889 39.193 716.915 292.25 716.916 545.307 C 716.916 547.973 741.461 655.315 741.401 657.654 C 742.212 662.106 742.38 689.087 741.707 693.695 C 741.376 695.134 739.26 700.054 738.823 701.711 C 738.133 703.147 720.548 725.745 718.225 727.413 C 717.547 728.617 716.968 729.684 716.963 730.753 C 716.901 745.576 713.641 798.088 713.365 799.224 C 712.93 800.573 711.527 804.387 711.183 805.485 C 710.88 806.38 707.531 811.215 707.089 812.296 C 705.972 814.983 701.441 819.221 699.607 820.441 C 698.46 821.423 687.07 830.539 686.036 830.793 C 685.077 831.232 659.927 838.334 654.219 838.412 C 637.389 838.641 620.554 838.493 603.721 838.493 C 520.388 838.493 437.055 838.501 353.723 838.47 C 349.109 838.469 32.127 975.882 24.049 979.368 C 9.964 980.432 4.992 980.033 3.194 978.977 C 2.327 978.39 -5.692 979.53 -17.242 965.384 C -17.242 965.384 -16.738 965.469 -17.226 965.384 C -17.226 965.384 -73.969 850.715 -73.873 849.202 C -74.152 848.488 -80.042 834.058 -83.459 834.265 C -86.545 832.472 -89.294 830.766 -92.111 828.746 C -94.508 827.226 -112.414 807.27 -113.561 804.535 C -113.984 803.581 -119.185 790.428 -118.988 789.159 C -119.103 787.045 -119.173 760.728 -119.295 750.707 C -119.313 749.203 -435.59 55.209 -436.926 51.943 C -437.624 49.843 -445.556 29.881 -446.252 29.045 C -447.075 26.33 -449.96 13.211 -449.954 12.085 C -449.926 6.426 -450.472 1.737 -445.255 -14.015 C -442.367 -22.476 -439.88 -23.142 -437.473 -27.996 C -414.093 -51.309 -390.645 -57.883 -378.187 -63.69 C -372.569 -66.308 -312.087 -94.601 -310.329 -95.502 C -311.857 -103.185 -314.012 -110.051 -314.443 -117.023 C -315.34 -131.558 -310.985 -145.053 -302.717 -156.845 C -294.575 -168.457 -284.136 -177.509 -269.024 -179.812 C -267.828 -180.333 -125.502 -216.571 -123.971 -216.404 C -119.724 -216.464 -119.557 -219.669 -119.254 -222.541 C -118.789 -226.945 -112.574 -250.77 -104.065 -262.184 C -104.065 -262.184 -96.857 -271.682 -84.478 -276.3 C -76.079 -279.433 -55.529 -280.624 -51.706 -280.624 C 0.001 -280.624 51.707 -280.623 103.413 -280.629 C 106.164 -280.629 242.249 -345.194 243.054 -345.918 C 244.156 -346.309 251.341 -348.084 260.24 -348.87 C 266.363 -348.72 267.242 -348.484 273.714 -346.429 C 289.738 -340.474 291.296 -337.613 294.897 -336.131 C 294.897 -336.131 304.778 -330.694 309.004 -327.349 C 311.193 -326.999 406.106 -349 409.046 -349.389 C 411.5 -350.141 418.896 -351.207 429.752 -353.962 C 444.56 -354.013 442.582 -354.189 448.997 -353.846 C 452.437 -352.93 462.54 -352.495 468.002 -349.501 C 482.228 -341.703 489.759 -333.04 490.898 -332.123 M 648.854 768.386 C 648.854 768.386 663.23 753.796 663.702 752.695 C 663.702 752.695 671.378 740.779 672.526 737.259 C 673.533 734.175 675.698 716.033 675.699 712.946 C 675.736 422.973 680.927 -154.296 674.034 -177.471 C 666.215 -203.759 668.268 -200.864 658.457 -211.143 C 650.096 -219.903 645.044 -219.053 642.219 -220.598 C 641.707 -220.969 612.567 -225.62 608.904 -225.62 C 398.219 -225.623 186.821 -225.618 -24.327 -226.213 C -44.507 -219.994 -51.217 -213.924 -55.524 -210.127 C -57.406 -208.296 -51.734 -214.019 -61.877 -204.596 C -64.809 -201.004 -64.413 -202.423 -68.952 -195.581 C -76.371 -181.48 -73.969 -185.945 -75.995 -180.932 C -77.023 -178.391 -78.968 -158.268 -78.968 -156.176 C -79.002 131.782 -77.366 725.877 -77.914 726.949 C -76.997 731.035 -76.627 735.348 -75.037 739.152 C -72.594 744.999 -57.033 764.192 -53.173 768.338 C -42.477 777.468 -30.273 782.367 -16.036 782.364 C 193.549 782.314 634.22 780.289 640.135 774.181 C 640.135 774.181 645.708 771.858 646.603 770.469 C 647.374 769.805 648.144 769.14 648.854 768.386 M 34.399 843.315 C 35.156 842.746 35.913 842.178 36.67 841.61 C 35.617 840.989 17.312 839.988 10.317 839.712 C 8.597 839.715 6.877 839.717 4.399 839.5 C 3.233 839.968 2.067 840.436 0.901 840.904 C 0.952 841.542 28.389 843.262 31.388 843.316 C 32.138 843.268 32.887 843.221 34.399 843.315 M 417.276 -288.904 C 413.482 -288.696 409.688 -288.489 405.126 -288.341 C 404.105 -288.265 397.187 -287.863 395.138 -287.573 C 395.13 -286.992 403.233 -283.811 404.894 -283.818 C 411.707 -283.849 418.526 -283.765 425.328 -284.062 C 426.772 -284.125 428.154 -285.611 429.565 -286.441 C 428.221 -287.124 418.512 -288.265 417.276 -288.904 M -200.359 344.721 C -201.685 339.622 -203.116 334.547 -204.308 329.417 C -205.613 323.799 -283.923 10.512 -286.339 1.28 C -289.214 -9.702 -291.796 -20.76 -294.653 -31.746 C -296.175 -37.599 -296.912 -37.664 -302.261 -35.176 C -316.195 -28.694 -330.194 -22.348 -344.22 -16.065 C -354.315 -11.542 -363.408 -5.839 -370.79 2.681 C -378.228 11.267 -382.277 21.142 -384.75 32.023 C -386.822 41.139 -387.891 50.454 -384.532 59.084 C -377.766 76.468 -158.501 559.856 -151.27 575.611 C -146.061 586.96 -140.86 598.313 -135.154 610.759 C -134.592 608.661 -133.977 607.679 -134.184 606.922 C -135.711 601.352 -137.605 595.876 -138.997 590.275 C -141.262 581.154 -143.183 571.949 -145.348 562.803 C -146.37 558.486 -198.565 351.377 -200.359 344.721 M -182.091 240.88 C -180.045 248.89 -178.013 256.904 -175.951 264.911 C -173.554 274.218 -138.408 414.882 -136.076 424.369 C -133.669 434.162 -131.301 443.966 -128.758 453.724 C -126.587 462.056 -124.191 470.33 -121.895 478.629 C -121.378 478.571 -120.862 478.513 -120.345 478.455 C -120.146 476.418 -119.752 474.378 -119.792 472.346 C -119.869 468.359 -120.379 464.377 -120.38 460.392 C -120.414 257.399 -120.413 54.405 -120.414 -148.589 C -120.414 -150.089 -120.367 -151.589 -120.395 -153.088 C -120.475 -157.359 -121.815 -158.12 -126.026 -156.875 C -131.57 -155.235 -216.276 -134.496 -223.375 -131.142 C -234.717 -125.784 -243.625 -117.179 -249.561 -105.965 C -257.027 -91.862 -261.863 -77.262 -256.948 -61.03 C -255.56 -56.446 -254.796 -51.676 -253.685 -47.005 C -251.465 -37.675 -192.625 198.314 -190.335 207.804 C -187.733 218.582 -185.003 229.33 -182.091 240.88 M 103.419 888.428 C 105.713 886.919 108.008 885.41 110.303 883.902 C 105.52 884.056 100.991 884.801 96.561 885.934 C 86.992 888.381 77.505 891.157 67.924 893.553 C 58.655 895.872 49.307 897.871 39.999 900.033 C 36.164 900.923 32.287 901.697 28.548 902.897 C 27.365 903.276 26.57 904.865 25.598 905.9 C 26.403 906.583 27.17 907.804 28.02 907.865 C 35.438 908.398 43.179 910.212 50.226 908.754 C 60.257 906.678 69.855 902.343 79.501 898.615 C 87.343 895.585 94.982 892.029 103.419 888.428 Z"/>
        </g>
        <path fill="#D7D8EF" opacity="1.000000" stroke="none" d="M 243.166 519.488 C 241.782 520.853 173.308 591.212 166.01 598.737 C 160.158 604.771 146.468 606.718 139.255 602.891 C 126.322 596.028 123.232 582.866 131.145 568.659 C 154.26 527.166 177.55 485.77 200.732 444.314 C 222.777 404.893 244.786 365.452 266.747 325.984 C 267.646 324.368 267.892 322.39 268.442 320.581 C 266.6 320.176 264.759 319.42 262.916 319.417 C 221.936 319.354 180.956 319.452 139.977 319.265 C 135.442 319.244 130.711 318.248 126.425 316.713 C 118.488 313.87 115.69 306.415 112.6 299.004 C 112.629 296.476 112.609 294.392 112.881 292.113 C 115.098 287.763 120.875 277.332 122.333 275.95 C 129.02 268.626 220.68 167.191 245.808 139.065 C 252.526 131.545 390.899 -22.583 402.419 -35.274 C 406.617 -39.899 411.215 -42.868 417.768 -44.386 C 432.356 -47.766 447.455 -30.812 442.394 -15.73 C 440.501 -10.089 437.953 -4.648 435.43 0.757 C 425.534 21.957 415.552 43.116 405.559 64.27 C 394.784 87.077 336.156 211.279 330.764 222.757 C 333.705 223.039 335.892 223.43 338.079 223.432 C 371.905 223.469 405.731 223.395 439.556 223.517 C 444.672 223.536 449.841 224.086 454.888 224.953 C 470.503 227.638 480.849 240.162 480.97 256.06 C 480.981 257.504 480.207 261.744 480.397 263.186 C 477.816 273.131 476.478 274.286 475.747 275.131 C 474.613 277.888 244.155 518.247 243.166 519.488 M 318.938 92.545 C 315.005 96.934 230.485 191.061 218.788 204.039 C 193.263 232.357 167.752 260.689 142.272 289.047 C 140.704 290.793 139.451 292.822 137.336 295.69 C 140.374 295.884 142.116 296.093 143.859 296.093 C 185.345 296.109 226.832 296.054 268.318 296.181 C 272.218 296.193 276.54 296.458 279.936 298.108 C 292.491 304.207 297.033 318.726 290.303 331.228 C 280.934 348.633 177.162 533.631 161.438 561.762 C 159.253 565.671 157.162 569.633 155.027 573.571 C 155.456 573.892 155.885 574.214 156.314 574.535 C 158.004 573.083 159.83 571.76 161.364 570.159 C 197.777 532.155 378.317 343.615 417.3 302.835 C 424.38 295.429 454.869 263.313 457.181 259.91 C 460.122 255.581 456.999 248.975 451.887 247.566 C 449.519 246.913 446.967 246.693 444.496 246.682 C 427.67 246.611 410.844 246.652 394.018 246.648 C 373.027 246.645 352.033 246.821 331.045 246.567 C 313.564 246.355 302.503 229.689 309.286 214.051 C 312.85 205.833 316.765 197.765 320.617 189.674 C 336.237 156.863 351.951 124.095 367.521 91.26 C 383.303 57.979 398.962 24.64 414.636 -8.691 C 415.25 -9.996 415.461 -11.489 415.859 -12.894 C 415.447 -13.13 415.034 -13.366 414.622 -13.601 C 413.126 -12.166 411.529 -10.821 410.152 -9.278 C 403.171 -1.454 396.208 6.388 389.318 14.293 C 385.649 18.504 332.546 77.36 318.938 92.545 Z"/>
      </g>
    </g>
  </g>
</svg>